<?xml version="1.0" encoding="utf-8"?>
<!-- Generator: Adobe Illustrator 18.1.1, SVG Export Plug-In . SVG Version: 6.00 Build 0)  -->
<!DOCTYPE svg PUBLIC "-//W3C//DTD SVG 1.1//EN" "http://www.w3.org/Graphics/SVG/1.1/DTD/svg11.dtd">
<svg version="1.1" id="Layer_1" xmlns="http://www.w3.org/2000/svg" xmlns:xlink="http://www.w3.org/1999/xlink" x="0px" y="0px"
	 viewBox="0 0 104.6 93.5" enable-background="new 0 0 104.6 93.5" xml:space="preserve">
<g>
	<path fill="#811745" d="M54.8,31.6H44.3v13.9h10.8c5.2,0,8.2-2.8,8.2-6.9v-0.1C63.2,33.9,60,31.6,54.8,31.6z"/>
	<path fill="#811745" d="M103.1,41.3L82.4,5.4C80.5,2.1,76.9,0,73,0H31.6c-3.9,0-7.5,2.1-9.4,5.4L1.5,41.3c-1.9,3.4-1.9,7.5,0,10.9
		L22.2,88c1.9,3.4,5.5,5.4,9.4,5.4H73c3.9,0,7.5-2.1,9.4-5.4l20.7-35.9C105.1,48.8,105.1,44.7,103.1,41.3z M63,70.4L52.6,54.9h-8.4
		v15.5H33.6V21.9h22.2c6.2,0,10.9,1.7,14.1,4.9c2.7,2.7,4.2,6.5,4.2,11.1v0.1c0,7.8-4.2,12.7-10.4,15l11.8,17.3H63z"/>
</g>
</svg>
